<svg width="800" height="200" viewBox="0 0 800 200" fill="none" xmlns="http://www.w3.org/2000/svg">
  <defs>
    <linearGradient id="cube_grad" x1="0%" y1="0%" x2="100%" y2="100%">
      <stop offset="0%" style="stop-color:#3b82f6" />
      <stop offset="100%" style="stop-color:#1d4ed8" />
    </linearGradient>
    <linearGradient id="side_grad" x1="0%" y1="0%" x2="0%" y2="100%">
      <stop offset="0%" style="stop-color:#1e40af" />
      <stop offset="100%" style="stop-color:#1e3a8a" />
    </linearGradient>
  </defs>

  <g id="logo-mark" transform="translate(50, 40)">
    <path d="M15 80 L35 70 L55 80 L35 90 Z" fill="#93c5fd"/> <path d="M15 80 L15 110 L35 120 L35 90 Z" fill="#1e40af"/> <path d="M35 90 L35 120 L55 110 L55 80 Z" fill="#1d4ed8"/> <path d="M45 55 L65 45 L85 55 L65 65 Z" fill="#60a5fa"/> 
    <path d="M45 55 L45 95 L65 105 L65 65 Z" fill="#1e40af"/> 
    <path d="M65 65 L65 105 L85 95 L85 55 Z" fill="#1d4ed8"/>

    <path d="M75 30 L95 20 L115 30 L95 40 Z" fill="#3b82f6"/> 
    <path d="M75 30 L75 80 L95 90 L95 40 Z" fill="#1e3a8a"/> 
    <path d="M95 40 L95 90 L115 80 L115 30 Z" fill="#1d4ed8"/>

    <path d="M10 95 L40 75 L70 85 L125 35" stroke="#ffffff" stroke-width="6" stroke-linecap="round" stroke-linejoin="round" style="filter: drop-shadow(0px 2px 2px rgba(0,0,0,0.3))"/>
  </g>

  <g transform="translate(200, 110)">
    <text x="0" y="0" font-family="Arial, sans-serif" font-size="60" font-weight="900" fill="#1e293b" letter-spacing="-2">NEXE</text>
    <text x="175" y="0" font-family="Arial, sans-serif" font-size="55" font-weight="300" fill="#2563eb">Audit Suite</text>
  </g>

  <text x="202" y="140" font-family="Arial, sans-serif" font-size="12" font-weight="700" fill="#94a3b8" letter-spacing="3">QUALITY MANAGEMENT SYSTEM</text>
</svg>
